# xmcd
#
# Track frame offsets: 
#        150
#        23214
#        51753
#        77794
#        109186
#        129795
#        155394
#        172562
#        200146
#        221321
#
# Disc length: 3322 seconds
#
# Revision: 0
# Processed by: cddbd v1.5.2PL0 Copyright (c) Steve Scherf et al.
# Submitted via: ExactAudioCopy v0.95b4
#
DISCID=770cf80a
DTITLE=The Police - 2007-07-20-Hershey Stadium-Hershey, PA [CD1]
DYEAR=2007
DGENRE=Rock
TTITLE0=Message in a Bottle
TTITLE1=Synchronicity 2
TTITLE2=Walking on the Moon
TTITLE3=Voices Inside My Head/When the World Is Running Down
TTITLE4=Don't Stand So Close To Me
TTITLE5=Driven To Tears
TTITLE6=Truth Hits Everybody
TTITLE7=Bed's Too Big Without You
TTITLE8=Every Little Thing She Does is Magic 
TTITLE9=Wrapped Around Your Finger
EXTD=
EXTT0=
EXTT1=
EXTT2=
EXTT3=
EXTT4=
EXTT5=
EXTT6=
EXTT7=
EXTT8=
EXTT9=
PLAYORDER=
